<svg width="14.000000" height="14.000000" viewBox="0 0 14 14" fill="none" xmlns="http://www.w3.org/2000/svg" xmlns:xlink="http://www.w3.org/1999/xlink">
	<desc>
			Created with Pixso.
	</desc>
	<defs/>
	<path id="Icon (Stroke)" d="M0.29 13.7C-0.1 13.31 -0.1 12.68 0.29 12.29L5.58 7L0.29 1.7C-0.1 1.31 -0.1 0.68 0.29 0.29C0.68 -0.1 1.31 -0.1 1.7 0.29L7 5.58L12.29 0.29C12.68 -0.1 13.31 -0.1 13.7 0.29C14.09 0.68 14.09 1.31 13.7 1.7L8.41 7L13.7 12.29C14.09 12.68 14.09 13.31 13.7 13.7C13.31 14.09 12.68 14.09 12.29 13.7L7 8.41L1.7 13.7C1.31 14.09 0.68 14.09 0.29 13.7Z" fill="#FFFFFF" fill-opacity="1.000000" fill-rule="evenodd"/>
</svg>
