<svg width="26.400391" height="16.800781" viewBox="0 0 26.4004 16.8008" fill="none" xmlns="http://www.w3.org/2000/svg" xmlns:xlink="http://www.w3.org/1999/xlink">
	<desc>
			Created with Pixso.
	</desc>
	<defs/>
	<path id="Vector" d="M14.37 16.8C5.35 16.8 0.21 10.49 0 0L4.51 0C4.66 7.7 7.99 10.96 10.63 11.63L10.63 0L14.89 0L14.89 6.64C17.49 6.35 20.23 3.33 21.15 0L25.41 0C25.06 1.72 24.36 3.36 23.37 4.8C22.37 6.24 21.09 7.46 19.62 8.37C21.27 9.21 22.72 10.39 23.89 11.84C25.06 13.29 25.91 14.98 26.4 16.8L21.71 16.8C21.28 15.22 20.4 13.81 19.19 12.74C17.97 11.67 16.48 11 14.89 10.79L14.89 16.8L14.37 16.8Z" fill="#0077FF" fill-opacity="1.000000" fill-rule="nonzero"/>
</svg>
