<svg width="20.000000" height="20.000000" viewBox="0 0 20 20" fill="none" xmlns="http://www.w3.org/2000/svg" xmlns:xlink="http://www.w3.org/1999/xlink">
	<desc>
			Created with Pixso.
	</desc>
	<defs/>
	<path id="Icon (Stroke)" d="M5.75 0L14.24 0C15.04 0 15.71 0 16.25 0.04C16.81 0.08 17.33 0.18 17.81 0.43C18.56 0.82 19.17 1.43 19.56 2.18C19.81 2.66 19.91 3.18 19.95 3.74C20 4.28 20 4.95 20 5.75L20 14.24C20 15.04 20 15.71 19.95 16.25C19.91 16.81 19.81 17.33 19.56 17.81C19.17 18.56 18.56 19.17 17.81 19.56C17.33 19.81 16.81 19.91 16.25 19.95C15.71 20 15.04 20 14.24 20L5.75 20C4.95 20 4.28 20 3.74 19.95C3.18 19.91 2.66 19.81 2.18 19.56C1.43 19.17 0.82 18.56 0.43 17.81C0.18 17.33 0.08 16.81 0.04 16.25C0 15.71 0 15.04 0 14.24L0 5.75C0 4.95 0 4.28 0.04 3.74C0.08 3.18 0.18 2.66 0.43 2.18C0.82 1.43 1.43 0.82 2.18 0.43C2.66 0.18 3.18 0.08 3.74 0.04C4.28 0 4.95 0 5.75 0ZM3.91 2.03C3.47 2.07 3.24 2.13 3.09 2.21C2.71 2.41 2.41 2.71 2.21 3.09C2.13 3.24 2.07 3.47 2.03 3.91C2 4.36 2 4.94 2 5.8L2 14.19C2 15.05 2 15.63 2.03 16.08C2.07 16.52 2.13 16.75 2.21 16.9C2.41 17.28 2.71 17.58 3.09 17.78C3.24 17.86 3.47 17.92 3.91 17.96C4.36 18 4.94 18 5.8 18L14.19 18C15.05 18 15.63 18 16.08 17.96C16.52 17.92 16.75 17.86 16.9 17.78C17.28 17.58 17.58 17.28 17.78 16.9C17.86 16.75 17.92 16.52 17.96 16.08C18 15.63 18 15.05 18 14.19L18 5.8C18 4.94 18 4.36 17.96 3.91C17.92 3.47 17.86 3.24 17.78 3.09C17.58 2.71 17.28 2.41 16.9 2.21C16.75 2.13 16.52 2.07 16.08 2.03C15.63 2 15.05 2 14.19 2L5.8 2C4.94 2 4.36 2 3.91 2.03ZM15.2 6.29C15.59 6.68 15.59 7.31 15.2 7.7L9.2 13.7C8.81 14.09 8.18 14.09 7.79 13.7L4.79 10.7C4.4 10.31 4.4 9.68 4.79 9.29C5.18 8.9 5.81 8.9 6.2 9.29L8.5 11.58L13.79 6.29C14.18 5.9 14.81 5.9 15.2 6.29Z" fill="#DAF2F2" fill-opacity="1.000000" fill-rule="evenodd"/>
</svg>
