<svg width="160.000000" height="56.000000" viewBox="0 0 160 56" fill="none" xmlns="http://www.w3.org/2000/svg" xmlns:xlink="http://www.w3.org/1999/xlink">
	<desc>
			Created with Pixso.
	</desc>
	<defs>
		<clipPath id="clip1_23052">
			<rect id="Лого_градиент" rx="0.000000" width="139.000000" height="11.000000" transform="translate(10.500000 22.500000)" fill="white" fill-opacity="0"/>
		</clipPath>
		<clipPath id="clip1_806">
			<rect id="Interaction=Static, Style=Desktop" rx="0.000000" width="159.000000" height="55.000000" transform="translate(0.500000 0.500000)" fill="white" fill-opacity="0"/>
		</clipPath>
	</defs>
	<g clip-path="url(#clip1_806)">
		<rect id="Лого_градиент" rx="0.000000" width="139.000000" height="11.000000" transform="translate(10.500000 22.500000)" fill="#FFFFFF" fill-opacity="0"/>
		<g clip-path="url(#clip1_23052)">
			<path id="Vector" d="M10.13 27.98C10.13 24.48 13.05 22.09 17.45 22.09C18.94 22.09 20.42 22.39 21.79 22.96L21.13 24.73C20.01 24.23 18.79 23.96 17.55 23.94C14.58 23.94 13.05 25.46 13.05 27.98C12.99 28.48 13.03 28.99 13.18 29.47C13.33 29.96 13.58 30.41 13.92 30.79C14.25 31.17 14.67 31.49 15.14 31.71C15.6 31.93 16.11 32.06 16.63 32.08C17.47 32.1 18.3 31.84 18.96 31.33C19.63 30.83 20.09 30.11 20.26 29.31L16.96 29.31L16.96 27.41L22.97 27.41L22.97 33.69L21.03 33.69L21.03 30.85C20.67 31.8 20.01 32.61 19.14 33.17C18.27 33.72 17.24 33.99 16.2 33.93C15.39 33.93 14.6 33.78 13.85 33.49C13.11 33.19 12.44 32.75 11.88 32.19C11.31 31.64 10.87 30.98 10.57 30.26C10.27 29.54 10.12 28.76 10.13 27.98Z" fill="#030D0D" fill-opacity="1.000000" fill-rule="nonzero"/>
			<path id="Vector" d="M47.57 28.86C47.36 30.47 47.44 32.11 47.83 33.69L45.05 33.69C44.76 32.38 44.66 31.03 44.74 29.68L28.3 29.68L28.3 33.69L25.87 33.69L25.87 22.29L42.2 22.29C45.78 22.29 47.72 23.52 47.72 25.96C47.75 26.59 47.56 27.22 47.18 27.74C46.81 28.26 46.28 28.65 45.66 28.86L47.57 28.86ZM28.3 24.09L28.3 27.85L41.96 27.85C44.08 27.85 45.14 27.31 45.14 25.93C45.14 24.55 44.16 24.06 42.03 24.06L28.3 24.09Z" fill="#030D0D" fill-opacity="1.000000" fill-rule="nonzero"/>
			<path id="Vector" d="M50.21 27.98C50.21 24.41 53.11 22.04 57.3 22.04C61.48 22.04 64.4 24.48 64.4 27.98C64.4 31.49 61.46 33.93 57.3 33.93C53.13 33.93 50.21 31.55 50.21 27.98ZM61.78 27.98C61.79 27.42 61.67 26.87 61.45 26.35C61.22 25.84 60.88 25.38 60.46 25C60.03 24.63 59.53 24.34 58.98 24.16C58.43 23.99 57.85 23.93 57.28 23.99C56.71 23.96 56.15 24.03 55.62 24.22C55.08 24.4 54.59 24.69 54.18 25.07C53.77 25.44 53.44 25.9 53.22 26.4C52.99 26.9 52.88 27.44 52.88 27.99C52.88 28.54 52.99 29.08 53.22 29.58C53.44 30.09 53.77 30.54 54.18 30.92C54.59 31.29 55.08 31.58 55.62 31.77C56.15 31.95 56.71 32.03 57.28 31.99C57.85 32.05 58.43 31.99 58.98 31.82C59.53 31.64 60.04 31.35 60.46 30.98C60.89 30.6 61.23 30.13 61.45 29.62C61.68 29.1 61.79 28.54 61.78 27.98Z" fill="#030D0D" fill-opacity="1.000000" fill-rule="nonzero"/>
			<path id="Vector" d="M68.38 22.29L71.85 30.96L75.33 22.29L77.74 22.29L81.21 30.86L82.33 27.5L84.83 27.5L82.88 33.73L79.62 33.73L76.59 25.49L73.52 33.69L70.2 33.69L65.72 22.29L68.38 22.29Z" fill="#030D0D" fill-opacity="1.000000" fill-rule="nonzero"/>
			<path id="Vector" d="M84.05 22.29L99.38 22.29L98.45 24.26L92.31 24.26L92.31 33.69L89.81 33.69L89.81 24.26L83.39 24.26L84.05 22.29Z" fill="#030D0D" fill-opacity="1.000000" fill-rule="nonzero"/>
			<path id="Vector" d="M105.46 22.29L110.88 33.69L108.16 33.69L107.04 31.22L100.79 31.22L99.59 33.73L96.88 33.73L102.3 22.29L105.46 22.29ZM106.31 29.38L103.93 23.84L101.5 29.38L106.31 29.38Z" fill="#030D0D" fill-opacity="1.000000" fill-rule="nonzero"/>
			<path id="Vector" d="M113.65 31.03C115 31.7 116.5 32.05 118.02 32.08C119.97 32.08 121.01 31.5 121.01 30.71C121.01 28.56 113.25 29.03 113.25 25.19C113.25 23.28 115.19 22.04 118.32 22.04C120.01 22.04 121.69 22.37 123.25 23.01L122.56 24.87C121.23 24.29 119.79 23.99 118.34 23.98C116.6 23.98 115.9 24.4 115.9 25.15C115.9 27.41 123.63 27.16 123.63 30.81C123.63 32.66 121.58 33.98 118.06 33.98C116.3 33.98 114.56 33.61 112.97 32.9L113.65 31.03Z" fill="#030D0D" fill-opacity="1.000000" fill-rule="nonzero"/>
			<path id="Vector" d="M129.02 22.29L129.02 27.09L140.92 27.09L146.23 22.29L149.48 22.29L143.8 27.34L149.97 33.64L146.82 33.64L142.15 28.84L129.04 28.84L129.04 33.66L126.52 33.66L126.52 22.29L129.02 22.29Z" fill="#030D0D" fill-opacity="1.000000" fill-rule="nonzero"/>
			<path id="Vector" d="M58.82 27.88C58.82 28.7 58.14 29.36 57.3 29.36C56.45 29.36 55.77 28.7 55.77 27.88C55.77 27.06 56.45 26.4 57.3 26.4C58.14 26.4 58.82 27.06 58.82 27.88Z" fill="#030D0D" fill-opacity="1.000000" fill-rule="evenodd"/>
		</g>
		<path id="Наверх" d="M55.5 82.8L52.04 82.8L52.04 77.26L46.86 77.26L46.86 82.8L43.42 82.8L43.42 68.8L46.86 68.8L46.86 74.1L52.04 74.1L52.04 68.8L55.5 68.8L55.5 82.8ZM91.01 81.6C89.85 82.52 88.23 83.06 86.41 83.06C82.87 83.06 80.59 80.87 80.59 77.66C80.59 74.46 82.83 72.22 86.09 72.22C89.75 72.22 92.03 75.1 91.43 78.82L83.73 78.82C84.05 79.9 85.13 80.58 86.65 80.58C87.85 80.58 88.87 80.19 89.75 79.56L91.01 81.6ZM64.62 81.54C63.78 82.38 62.48 82.94 61.1 82.94C58.96 82.94 57.56 81.64 57.56 79.72C57.56 77.56 59.28 76.26 62.08 76.26C62.88 76.26 63.66 76.36 64.5 76.58L64.5 76.32C64.5 75.22 63.82 74.74 62.28 74.74C61.2 74.74 60.26 75 59.04 75.51L58.26 73.26C59.84 72.54 61.06 72.26 62.72 72.26C65.78 72.26 67.5 73.76 67.5 76.37L67.5 82.8L64.68 82.8L64.62 81.54ZM104.85 77.64C104.85 80.82 102.83 83.04 100.01 83.04C98.63 83.04 97.47 82.56 96.65 81.69L96.65 87.4L93.39 87.4L93.39 72.48L96.37 72.48L96.41 73.98C97.25 72.9 98.51 72.26 100.01 72.26C102.83 72.26 104.85 74.46 104.85 77.64ZM75.86 82.8L69.94 82.8L69.94 72.48L75.68 72.48C77.72 72.48 79.02 73.51 79.02 75.12C79.02 76.06 78.58 76.9 77.78 77.42C78.76 77.8 79.4 78.8 79.4 79.92C79.4 81.64 77.98 82.8 75.86 82.8ZM115.91 82.8L112.41 82.8L111.31 81.08L110.51 79.76L109.71 81.08L108.59 82.8L105.11 82.8L108.55 77.58L105.29 72.48L108.73 72.48L109.83 74.22L110.51 75.37L111.19 74.22L112.27 72.48L115.73 72.48L112.49 77.58L115.91 82.8ZM73 74.54L73 76.58L74.92 76.58C75.72 76.58 76.12 76.22 76.12 75.56C76.12 74.92 75.72 74.54 74.92 74.54L73 74.54ZM86.11 74.72C84.87 74.72 83.93 75.5 83.69 76.74L88.53 76.74C88.27 75.54 87.41 74.72 86.11 74.72ZM99.11 75.01C97.65 75.01 96.59 76.1 96.59 77.64C96.59 79.19 97.65 80.26 99.11 80.26C100.59 80.26 101.63 79.19 101.63 77.64C101.63 76.08 100.59 75.01 99.11 75.01ZM62.5 78.33C61.32 78.33 60.7 78.76 60.7 79.56C60.7 80.26 61.18 80.68 62.1 80.68C63.46 80.68 64.44 79.82 64.54 78.68C63.78 78.46 63.08 78.33 62.5 78.33ZM73 78.56L73 80.69L75.1 80.69C75.94 80.69 76.34 80.32 76.34 79.64C76.34 78.94 75.94 78.56 75.1 78.56L73 78.56Z" fill="#14CCCC" fill-opacity="1.000000" fill-rule="evenodd"/>
	</g>
</svg>
