<svg width="18.970703" height="18.968750" viewBox="0 0 18.9707 18.9688" fill="none" xmlns="http://www.w3.org/2000/svg" xmlns:xlink="http://www.w3.org/1999/xlink">
	<desc>
			Created with Pixso.
	</desc>
	<defs/>
	<path id="Icon (Stroke)" d="M0 9.48C0 8.93 0.44 8.48 1 8.48L8.48 8.48L8.48 1C8.48 0.44 8.93 0 9.48 0C10.03 0 10.48 0.44 10.48 1L10.48 8.48L17.97 8.48C18.52 8.48 18.97 8.93 18.97 9.48C18.97 10.03 18.52 10.48 17.97 10.48L10.48 10.48L10.48 17.96C10.48 18.52 10.03 18.96 9.48 18.96C8.93 18.96 8.48 18.52 8.48 17.96L8.48 10.48L1 10.48C0.44 10.48 0 10.03 0 9.48Z" fill="#FFFFFF" fill-opacity="1.000000" fill-rule="evenodd"/>
</svg>
